<svg height="512pt" viewBox="0 0 512 512" width="512pt" xmlns="http://www.w3.org/2000/svg"><path d="M512 256c0 141.387-114.613 256-256 256S0 397.387 0 256 114.613 0 256 0s256 114.613 256 256zm0 0" fill="#2d5396"/><path d="M512 256c0-4.41-.113-8.793-.332-13.145l-140.89-140.89-3.926 2.71-20.348-20.35L331.5 130.5l-51.223-50.625-4.312 2.328L256 62.238l-15.004 46.176 29.715 29.715-15.879 28.89-65.059-65.054-4.703 1.933-19.57-19.574-15.004 46.176 63.012 63.012-.457 49.535-80.61-80.61-4.703 1.934-19.46-19.57-15.005 46.176 95.739 95.804-15.668 28.504-64.793-64.734-4.48 1.933-19.794-19.57-15.004 46.176 61.403 61.312-1.762 1.262-20.637-20.64-15.004 46.175 144.122 144.125c6.144.442 12.347.676 18.605.676 141.387 0 256-114.613 256-256zm0 0" fill="#1b3b6b"/><path d="M256 62.238l7.504 15.2 16.773 2.437-12.14 11.832 2.867 16.707L256 100.527l-15.004 7.887 2.867-16.707-12.14-11.832 16.773-2.438zm0 0" fill="#ffe000"/><path d="M280.277 79.875l-16.773-2.438L256 62.239v38.29l15.004 7.886-2.867-16.707zm0 0" fill="#ffc200"/><path d="M256 405.824l7.504 15.2 16.773 2.437-12.14 11.832L271.004 452 256 444.113 240.996 452l2.867-16.707-12.14-11.832 16.773-2.438zm0 0" fill="#ffe000"/><g fill="#ffc200"><path d="M280.277 423.46l-16.773-2.437L256 405.824v38.29L271.004 452l-2.867-16.707zm0 0M427.723 232.914l7.504 15.2L452 250.55l-12.137 11.832 2.864 16.703-15.004-7.887-15 7.887 2.863-16.703-12.137-11.832 16.774-2.438zm0 0M403.723 144.8l7.504 15.2L428 162.438l-12.137 11.832 2.864 16.707-15.004-7.891-15 7.89 2.863-16.706-12.137-11.833L396.223 160zm0 0M403.723 321.023l7.504 15.204L428 338.66l-12.137 11.832 2.864 16.707-15.004-7.886-15 7.886 2.863-16.707-12.137-11.832 16.774-2.433zm0 0M346.504 84.324l7.5 15.203 16.773 2.438-12.136 11.828 2.863 16.707-15-7.887-15.008 7.887 2.867-16.707-12.136-11.828L339 99.527zm0 0M344.504 379.324l7.5 15.203 16.773 2.438-12.136 11.828 2.863 16.707-15-7.887-15.008 7.887 2.867-16.707-12.136-11.828L337 394.527zm0 0"/></g><path d="M108.277 144.8l-7.504 15.2L84 162.438l12.137 11.832-2.864 16.707 15.004-7.891 15 7.89-2.863-16.706 12.137-11.833L115.777 160zm0 0M108.277 321.023l-7.504 15.204L84 338.66l12.137 11.832-2.864 16.707 15.004-7.886 15 7.886-2.863-16.707 12.137-11.832-16.774-2.433zm0 0M165.496 84.324l-7.5 15.203-16.773 2.438 12.136 11.828-2.863 16.707 15-7.887 15.008 7.887-2.867-16.707 12.136-11.828L173 99.527zm0 0M167.496 379.324l-7.5 15.203-16.773 2.438 12.136 11.828-2.863 16.707 15-7.887 15.008 7.887-2.867-16.707 12.136-11.828L175 394.527zm0 0M84.277 232.914l7.5 15.2 16.774 2.437-12.137 11.832 2.863 16.703-15-7.887-15.004 7.887 2.864-16.703L60 250.55l16.773-2.438zm0 0" fill="#ffe000"/><path d="M329.965 253.555h-35v-46.121c0-21.485-17.48-38.961-38.965-38.961s-38.965 17.476-38.965 38.96v46.122h-35v-46.121c0-40.782 33.184-73.961 73.965-73.961s73.965 33.18 73.965 73.96zm0 0" fill="#65b1fc"/><path d="M256 133.473v35c21.484 0 38.965 17.476 38.965 38.96v46.122h35v-46.121c0-40.782-33.18-73.961-73.965-73.961zm0 0" fill="#4a98f7"/><path d="M165.496 239.156H346.5V367.2H165.496zm0 0" fill="#abddff"/><path d="M256 239.156h90.504V367.2H256zm0 0" fill="#78beff"/><path d="M240.277 280.29h31.446v56.585h-31.446zm0 0" fill="#4a98f7"/><path d="M256 280.29h15.723v56.585H256zm0 0" fill="#4a7aff"/></svg>