<svg xmlns="http://www.w3.org/2000/svg" viewBox="0 0 512 512"><path fill="#f50c15" d="M226.226 89.185h59.544v115.26h-59.544z"/><path fill="#b10000" d="M226.226 89.185h59.544v43.612h-59.544z"/><path fill="#f50c15" d="M449.517 85.79v368.229H374.3V85.79"/><path fill="#474a51" d="M449.517 419.55v48.575H374.3V419.55"/><g fill="#b10000"><path d="M449.517 195.476v48.576H374.3v-48.576M449.517 84.222v48.576H374.3V84.222"/></g><path fill="#f50c15" d="M137.7 85.79v368.229H62.483V85.79"/><path fill="#474a51" d="M137.7 419.55v48.575H62.483V419.55"/><g fill="#b10000"><path d="M137.7 195.476v48.576H62.483v-48.576M137.7 84.222v48.576H62.483V84.222"/></g><path fill="#474a51" d="M46.144 454.02h107.885V512H46.144z"/><path fill="#393c42" d="M46.144 454.02h29.785V512H46.144z"/><path fill="#474a51" d="M357.972 454.02h107.885V512H357.972z"/><g fill="#f50c15"><path d="M33.404 187.897h445.192v33.096H33.404zM33.381 36.898h445.234v68.834H33.381z"/></g><path d="M478.615 36.897V63.63a1257.996 1257.996 0 01-445.234 0V36.897h138.515a1255.345 1255.345 0 00168.215 0h138.504z" fill="#b10000"/><path fill="#393c42" d="M357.972 454.02h29.785V512h-29.785z"/><path d="M511.135 43.764a1258.147 1258.147 0 01-510.27 0V0a1258.147 1258.147 0 00510.27 0v43.764z" fill="#474a51"/></svg>