<svg xmlns="http://www.w3.org/2000/svg" viewBox="0 0 500 500"><path fill="#ebebeb" d="M0 382.4h500v.25H0zM288.4 396.34h33.12v.25H288.4zM407.08 393.63h8.69v.25h-8.69zM327.67 389.21h68.92v.25h-68.92zM194.84 395.11h30.3v.25h-30.3zM166.72 395.11h19.22v.25h-19.22zM52.46 390.89H99.3v.25H52.46zM237 337.8H43.91a5.71 5.71 0 01-5.7-5.71V60.66a5.71 5.71 0 015.7-5.66H237a5.71 5.71 0 015.71 5.71v271.38a5.71 5.71 0 01-5.71 5.71zM43.91 55.2a5.46 5.46 0 00-5.45 5.46v271.43a5.46 5.46 0 005.45 5.46H237a5.47 5.47 0 005.46-5.46V60.66A5.47 5.47 0 00237 55.2zM453.31 337.8h-193.1a5.72 5.72 0 01-5.71-5.71V60.66a5.72 5.72 0 015.71-5.66h193.1a5.71 5.71 0 015.69 5.66v271.43a5.71 5.71 0 01-5.69 5.71zM260.21 55.2a5.47 5.47 0 00-5.46 5.46v271.43a5.47 5.47 0 005.46 5.46h193.1a5.47 5.47 0 005.46-5.46V60.66a5.47 5.47 0 00-5.46-5.46z"/><path fill="#e0e0e0" opacity=".6" d="M74.33 82.11h351.33v278.22H74.33z"/><path fill="#e0e0e0" opacity=".6" d="M177.69 82.11h2.89v278.22h-2.89zM319.42 82.11h2.89v278.22h-2.89z"/><path d="M426.56 87.22H73.44a5.11 5.11 0 01-5.11-5.11A5.11 5.11 0 0173.44 77h353.12a5.11 5.11 0 015.11 5.11 5.11 5.11 0 01-5.11 5.11zM142.39 153.29l-81.65 8.58a4.44 4.44 0 01-5-4.72l.74-22.87a6.18 6.18 0 015.36-5.81l81.65-8.58a2.28 2.28 0 012.58 2.42l-.91 28a3.16 3.16 0 01-2.77 2.98z" fill="#e0e0e0"/><path d="M140.61 152l-76.21 8a2.28 2.28 0 01-2.58-2.42l.81-25a3.17 3.17 0 012.75-3l76.22-8a2.29 2.29 0 012.58 2.43l-.81 25a3.18 3.18 0 01-2.76 2.99z" fill="#fff"/><path d="M357.83 154l81.79 7.16a4.45 4.45 0 004.94-4.81l-1.14-22.85a6.19 6.19 0 00-5.47-5.72l-81.78-7.16a2.29 2.29 0 00-2.54 2.47l1.4 28a3.17 3.17 0 002.8 2.91z" fill="#e0e0e0"/><path d="M359.58 152.69l76.35 6.68a2.29 2.29 0 002.54-2.47l-1.25-25a3.18 3.18 0 00-2.8-2.94l-76.35-6.68a2.3 2.3 0 00-2.54 2.47l1.25 25a3.17 3.17 0 002.8 2.94z" fill="#fff"/><rect x="205" y="116.44" width="90" height="33.11" rx="2.32" transform="rotate(180 250 133)" fill="#e0e0e0"/><rect x="209" y="117.92" width="82" height="30.17" rx="2.32" transform="rotate(180 250 133)" fill="#fff"/><g><ellipse cx="250" cy="416.24" rx="193.89" ry="11.32" fill="#f5f5f5"/></g><g><rect x="154.49" y="309.15" width="72.67" height="7.34" rx="2.93" transform="rotate(-180 190.825 312.82)" fill="#263238"/><path fill="#0040ce" d="M157.47 398.31h-2.98l3.43-81.82h4.12l-4.57 81.82z"/><path fill="#fff" opacity=".6" d="M157.47 398.31h-2.98l3.43-81.82h4.12l-4.57 81.82z"/><path fill="#0040ce" d="M184.91 398.31h2.98l-3.43-81.82h-4.12l4.57 81.82z"/><path fill="#fff" opacity=".6" d="M184.91 398.31h2.98l-3.43-81.82h-4.12l4.57 81.82z"/><path fill="#0040ce" d="M196.74 398.31h-2.98l3.43-81.82h4.12l-4.57 81.82z"/><path fill="#fff" opacity=".6" d="M196.74 398.31h-2.98l3.43-81.82h4.12l-4.57 81.82z"/><path fill="#0040ce" d="M224.18 398.31h2.98l-3.43-81.82h-4.13l4.58 81.82z"/><path fill="#fff" opacity=".6" d="M224.18 398.31h2.98l-3.43-81.82h-4.13l4.58 81.82z"/><g opacity=".3" fill="#0040ce"><path d="M157.92 316.49h4.13l-.2 3.48h-4.08l.15-3.48zM184.61 319.97h-4.08l-.19-3.48h4.12l.15 3.48zM201.31 316.49l-.19 3.48h-4.08l.15-3.48h4.12zM223.88 319.97h-4.09l-.19-3.48h4.13l.15 3.48z"/></g><path fill="#ffc3bd" d="M198.65 386.28l6.75 3.59 10.63-14.36-6.75-3.58-10.63 14.35z"/><path d="M207.83 387.65l-7-4.89a.54.54 0 00-.76.1l-4.22 5.33a1.36 1.36 0 00.33 1.88c2.48 1.66 3.6 2.24 6.84 4.17 2 1.18 6.78 4 9.72 5.27s4.12-1.67 3-2.47c-2.68-1.9-6.23-5.63-7-8.25a2.11 2.11 0 00-.91-1.14z" fill="#263238"/><path opacity=".2" d="M209.27 371.93l6.76 3.59-5.12 6.91-6.6-3.8 4.96-6.7z"/><path d="M193 286.92s52.39-1.63 52.57 20.26C245.82 338.64 216 380 216 380l-11.63-7.77s20.47-30 20.64-54.6c-15.44-4.36-51.79-1.63-56.51-14.42-3.86-10.47-1.84-16.25-1.84-16.25z" fill="#0040ce"/><path d="M193 286.92s52.39-1.63 52.57 20.26C245.82 338.64 216 380 216 380l-11.63-7.77s20.47-30 20.64-54.6c-15.44-4.36-51.79-1.63-56.51-14.42-3.86-10.47-1.84-16.25-1.84-16.25z" opacity=".2"/><path fill="#263238" d="M201.13 374.19l13.89 8.51 4.36-4.42-15.27-9.62-2.98 5.53z"/><path d="M210.7 390.78a1 1 0 00.74-.67.68.68 0 00-.06-.65c-.55-.83-3.17-.85-3.47-.85a.18.18 0 00-.16.1.17.17 0 000 .19 9.45 9.45 0 001.52 1.39 2 2 0 001.43.49zm.39-1.12a.32.32 0 010 .32.66.66 0 01-.47.45c-.49.08-1.34-.46-2.31-1.46 1.07.03 2.48.24 2.78.69z" fill="#0040ce"/><path d="M207.9 389c.88.06 2.73-.59 3.06-1.38a.69.69 0 00-.22-.81.94.94 0 00-.77-.23c-1.05.17-2.16 2.07-2.21 2.16a.17.17 0 000 .17l.05.06zm2.6-1.92c.19.17.17.31.13.4a3.57 3.57 0 01-2.39 1.16c.39-.61 1.16-1.6 1.79-1.7a.48.48 0 01.4.09.18.18 0 01.07-.03z" fill="#0040ce"/><path fill="#ffc3bd" d="M211.13 395.08l7.57-.36 1.24-17.88-7.57.36-1.24 17.88z"/><path d="M218.88 393.43l-8.58-.27a.54.54 0 00-.58.5l-.63 6.77a1.36 1.36 0 001.29 1.4c3 0 4.42-.09 8.19 0a71.31 71.31 0 0010.06 0c3.11-.39 2.69-3.54 1.31-3.65-3.28-.27-7.66-2.53-9.77-4.29a2.08 2.08 0 00-1.29-.46z" fill="#263238"/><path d="M223 394.48a1 1 0 00.26-1 .68.68 0 00-.4-.52c-.92-.4-3.13 1-3.38 1.17a.18.18 0 00-.08.18.17.17 0 00.13.14 9.14 9.14 0 002 .34 2 2 0 001.47-.31zm-.28-1.14a.32.32 0 01.19.25.65.65 0 01-.15.63c-.37.35-1.37.36-2.73 0 .88-.49 2.17-1.1 2.67-.88z" fill="#0040ce"/><path d="M219.64 394.49c.78-.43 2-2 1.82-2.82a.68.68 0 00-.63-.56.87.87 0 00-.76.22c-.8.72-.69 2.92-.69 3a.19.19 0 00.09.15h.08zm1.14-3c.25 0 .31.16.33.27.1.55-.7 1.73-1.38 2.27a3.92 3.92 0 01.58-2.41.54.54 0 01.38-.14z" fill="#0040ce"/><path opacity=".2" d="M212.37 377.21l7.57-.36-.71 10.22-7.55-.01.69-9.85z"/><path d="M174.35 286.92s9 .85 19.64 3c15.51 3.1 34.37 8.91 33.19 18.71-2.88 23.8-4.31 75.09-4.31 75.09l-14 .55S203 338 206 313.61c-14.18 0-48.91 1-52.08-7.53-2.8-7.55-1.8-19.16-1.8-19.16.26-4.79 6.24-20.27 6.24-20.27l34.13 1.52 5 18.74-3.49 1.57z" fill="#0040ce"/><path fill="#263238" d="M207.36 385.1l16.77-.83.6-7.3-18.39 1.27 1.02 6.86zM159.51 182.88c-4.58-.6-5 9.14.34 14.48s-5 9.36 2.5 18.39 32.69 18.69 36.34 6-1.93-14-4.26-20.09-3.58-9.81-2.25-19.15-10-13.76-14.25-14.51-25.83-.85-18.42 14.88z"/><path d="M198.67 224.89c1.26 3.84 2.39 7.68 3.47 11.56s2.13 7.75 3.11 11.64c.23.94.51 2.09.66 2.61a11 11 0 00.91 2.05 22.29 22.29 0 003.14 4.1 39.31 39.31 0 004.12 3.78c1.46 1.19 3.06 2.37 4.59 3.41l-1.74 3.62a41 41 0 01-11.16-6.19 25 25 0 01-4.77-4.91 16.42 16.42 0 01-1.85-3.27c-.54-1.36-.75-2.16-1.08-3.13q-1.84-5.7-3.64-11.42c-1.2-3.8-2.38-7.63-3.5-11.43z" fill="#ffc3bd"/><path d="M196.35 216.18c3.45.87 5.86 15.06 5.86 15.06l-9.5 6.45s-9.1-14.3-6.45-18.09c2.74-3.95 5.07-4.71 10.09-3.42z" fill="#0040ce"/><path d="M196.35 216.18c3.45.87 5.86 15.06 5.86 15.06l-9.5 6.45s-9.1-14.3-6.45-18.09c2.74-3.95 5.07-4.71 10.09-3.42z" fill="#0040ce"/><path opacity=".3" d="M196.04 219.34l2.65 14.3-5.34 3.62 2.69-17.92z"/><path d="M217.53 263.93l8-2-3.84 7.67s-4.56.2-5.8-3zM228.27 264.3l1.34 5.25-7.89.08 3.84-7.67 2.71 2.34z" fill="#ffc3bd"/><path d="M196.35 216.18s4 1.4-4 50.47h-34c.57-13.83.58-22.35-6-50.72A101.38 101.38 0 01166.8 214a108.59 108.59 0 0115.42 0c6.62.64 14.13 2.18 14.13 2.18z" fill="#0040ce"/><path d="M168.33 196.67c1 5 1.94 14.05-1.53 17.36 0 0-2.22 24.07 13.21 23.66 16.75-.43 2.21-23.66 2.21-23.66-5.53-1.32-5.39-5.42-4.43-9.28z" fill="#ffc3bd"/><path d="M187.43 225.82c-2.09 4.37-15.54 3-19.73.5 1.42 5.86 4.74 11.57 12.32 11.37 8.32-.21 8.92-6.05 7.41-11.87z" fill="#fff"/><path d="M172.19 200l5.6 4.78a16.46 16.46 0 00-.48 2.73c-2.11-.3-5-2.62-5.24-4.84a7.4 7.4 0 01.12-2.67z" opacity=".2"/><path d="M163.75 187.8c1.93 8.08 2.58 11.53 7.43 15 7.31 5.21 16.8 1.06 17.31-7.42.47-7.64-2.77-19.56-11.33-21.4a11.32 11.32 0 00-13.41 13.82z" fill="#ffc3bd"/><path d="M164.82 183.46c4 .7 23.86-6.29 19.28-9.92s-12-2.07-15.94.14-7.16 9.1-3.34 9.78zM176.52 187.91c.12.66.56 1.14 1 1.06s.69-.67.57-1.34-.56-1.14-1-1.06-.69.68-.57 1.34zM184 186.59c.12.66.56 1.14 1 1.06s.69-.67.57-1.34-.56-1.14-1-1.06-.66.68-.57 1.34z" fill="#263238"/><path d="M184.42 185.32l1.51-.74s-.6 1.42-1.51.74z" fill="#263238"/><path d="M182.25 188.08a18 18 0 003.11 3.82 2.87 2.87 0 01-2.29.86z" fill="#ed847e"/><path d="M180.06 195.89a6.49 6.49 0 001.13-.1.2.2 0 10-.07-.39 5.32 5.32 0 01-4.65-1.3.19.19 0 00-.28 0 .2.2 0 000 .28 5.53 5.53 0 003.87 1.51z" fill="#263238"/><path d="M163.39 193.89a6.09 6.09 0 003.28 3.27c2 .79 3.2-.91 2.85-2.9-.32-1.78-1.73-4.35-3.8-4.3a2.73 2.73 0 00-2.33 3.93z" fill="#ffc3bd"/><path d="M172.57 177.41c4 5-5.19 11.84-2.28 20 8.89 24.75-1.36 26.3-4.77 16.75S159.23 192 160 186.45s9.85-12.45 12.57-9.04z" fill="#263238"/><path d="M173.84 185.63a.42.42 0 00.24-.2 3.13 3.13 0 012.25-1.76.41.41 0 00.35-.44.4.4 0 00-.44-.35 3.93 3.93 0 00-2.87 2.2.4.4 0 00.17.53.39.39 0 00.3.02zM186.76 182.54a.43.43 0 00.28-.11.4.4 0 000-.56 3.9 3.9 0 00-3.39-1.26.4.4 0 10.14.78 3.15 3.15 0 012.68 1 .35.35 0 00.29.15z" fill="#263238"/><path d="M156.5 227.8c-.53 1.71-1.1 3.53-1.62 5.32s-1 3.6-1.5 5.4c-1 3.6-1.79 7.23-2.43 10.84-.3 1.8-.6 3.61-.76 5.38l-.12 1.24a1.54 1.54 0 000 .49 3.18 3.18 0 00.51 1.43 14.25 14.25 0 003.11 3.44 46.09 46.09 0 004.29 3.12l-1.44 3.75a25.09 25.09 0 01-5.89-2.17 17.11 17.11 0 01-5.46-4.13 10.31 10.31 0 01-2-3.67 9.23 9.23 0 01-.37-2.36v-1.63c.06-2.05.27-4.05.51-6a106.38 106.38 0 012.22-11.67c.44-1.92.95-3.82 1.5-5.7s1.11-3.74 1.8-5.67z" fill="#ffc3bd"/><path d="M152.38 215.93c-3.41 1-7.49 12.75-7.49 12.75l13.2 9.44s4.81-9.78 3.38-14.18c-1.47-4.58-5.21-9.19-9.09-8.01z" fill="#0040ce"/><path d="M157.89 264.65l-.87 3c-.12.24.16.48.55.48h35c.3 0 .56-.15.58-.34l.3-3c0-.21-.24-.39-.58-.39h-34.43a.61.61 0 00-.55.25z" fill="#263238"/><path d="M162.51 268.5h-.92c-.19 0-.33-.1-.32-.21l.44-4c0-.12.17-.21.35-.21h.94c.19 0 .33.09.31.21l-.43 4c-.03.11-.19.21-.37.21zM189.94 268.5H189c-.19 0-.33-.1-.31-.21l.43-4c0-.12.17-.21.35-.21h.93c.18 0 .32.09.31.21l-.44 4c.01.11-.15.21-.33.21zM176.22 268.5h-.92c-.18 0-.32-.1-.31-.21l.43-4c0-.12.18-.21.36-.21h.92c.18 0 .32.09.31.21l-.43 4c-.01.11-.17.21-.36.21z" fill="#fff"/><path d="M176.91 186.64l1.52-.74s-.6 1.39-1.52.74z" fill="#263238"/><path d="M156.83 263.91l8.84-1.86-4 7.49s-5.37 0-7-3z" fill="#ffc3bd"/><path fill="#ffc3bd" d="M171.98 265.15l-3.71 6.09-7.98-1.79 5.39-7.4 6.3 3.1z"/></g><g><path d="M286.68 252.73c.21.5.36 1 .52 1.52s.32 1 .48 1.51c.32 1 .62 2 1 3s.7 2 1.1 2.92c.2.49.4 1 .6 1.47l.31.73.15.36c0 .11.12.26.05.29l-2.57 4.13c-.33-.13-.49-.16-.7-.24l-.58-.23c-.36-.17-.73-.34-1.06-.53a15.14 15.14 0 01-1.91-1.28 18.39 18.39 0 01-3.09-3.21 19.88 19.88 0 01-1.23-1.81 17.51 17.51 0 01-1-1.9c-.33-.64-.57-1.31-.84-2a20.53 20.53 0 01-.6-2z" fill="#ff8b7b"/><path d="M291.4 204s-6.48 24 1.09 75.69c14.11-.3 37.82-.85 44.69-1 .17-7.2-5.14-42.48 1.07-76.51a92.94 92.94 0 00-13.53-1.34 172.64 172.64 0 00-19.91.43A87.5 87.5 0 00291.4 204z" fill="#f5f5f5"/><path d="M322.27 178.52c-1.12 6.43-2.12 18.19 2.45 22.37 0 0-1.08 4.71-10.15 7.1a8.7 8.7 0 01-7.81-1.55c-2.95-2.45-1.95-5.12-1.95-5.12 7.11-1.86 6.81-7.16 5.46-12.11z" fill="#ff8b7b"/><path d="M308 210.5a13.86 13.86 0 00.7 1.72 1.34 1.34 0 001.2.74h2.87a1.38 1.38 0 001-.52 7 7 0 001.23-1.94c.11-.57-3.49-3.21-3.49-3.21s-3.66 2.13-3.51 3.21z" fill="#0040ce"/><path d="M323.59 199.27c-1.13 1.64-7 6.11-12.13 8a12.29 12.29 0 013.8 5.64s10-7.06 11.54-12.13c-1.45-.61-3.21-1.51-3.21-1.51zM305.81 200.25c.13 2.29.56 5.13 5.65 7a12.29 12.29 0 00-3.8 5.64s-5.81-5.11-5.36-11.62a21.9 21.9 0 013.51-1.02z" fill="#fff"/><path d="M314.58 233.17c-.28-5.73-1.18-16.61-2-21.6h-2.37c-1.72 3.84-4.18 18.73-4.75 21.52s1.85 9.08 4.77 15c2.18-6.55 4.63-9.19 4.35-14.92z" fill="#0040ce"/><path d="M317.38 182.88l-7.1 6.33a21 21 0 01.69 3.52c2.72-.45 6.4-3.53 6.63-6.39a9.42 9.42 0 00-.22-3.46z" opacity=".2"/><path d="M312.8 160.65c2.91 3.16.4 6.77-8.89 11.16-2.21-4.87-.86-13 2.14-14.42s4.21.52 6.75 3.26z" fill="#263238"/><path d="M326.17 170.59c-2.36 8.37-3.32 13.38-8.54 16.81-7.86 5.15-17.49-1-17.68-9.91-.16-8 3.72-20.35 12.75-21.92a11.86 11.86 0 0113.47 15.02z" fill="#ff8b7b"/><path d="M313 170.17c-.15.69-.64 1.17-1.09 1.07s-.69-.73-.54-1.42.63-1.17 1.08-1.08.65.74.55 1.43zM305.15 168.48c-.15.69-.64 1.17-1.09 1.07s-.7-.73-.55-1.43.64-1.17 1.09-1.07.7.74.55 1.43z" fill="#263238"/><path d="M307.64 169.36a25.22 25.22 0 01-4.58 5.19c1 1.41 3.17 1.33 3.17 1.33z" fill="#ff5652"/><path d="M307.58 178.23a5.93 5.93 0 005.3-1.28.22.22 0 000-.3.21.21 0 00-.29 0 5.59 5.59 0 01-4.92 1.17.21.21 0 10-.09.41zM315.68 168.16a.41.41 0 00.27 0 .42.42 0 00.21-.55 4.1 4.1 0 00-2.94-2.39.4.4 0 00-.47.35.43.43 0 00.35.47 3.27 3.27 0 012.3 1.91.43.43 0 00.28.21zM302.15 165.06a.43.43 0 00.42-.15 3.3 3.3 0 012.68-1.34.42.42 0 00.45-.38.42.42 0 00-.37-.45 4.14 4.14 0 00-3.41 1.66.41.41 0 00.07.58.48.48 0 00.16.08zM326.1 200.07s-12.13 33.23-17 45.3c-1.19 16.47 1.17 43.43 1.17 43.43h29.79s1.63-80.37-1.31-87c-2.99-1-9.26-2.15-12.65-1.73z" fill="#263238"/><path d="M302.65 200.8s2.14 26.4 6 42.46 2.58 45.54 2.58 45.54h-23s-.47-78.57 2.48-85.22c2.34-1.69 8.56-3.2 11.94-2.78z" fill="#263238"/><path d="M319.34 239.38c-10.94-.64-22-1.32-25.72 0 .92-.08 4.91 28.09 4 28.17h25.72c-.87-11.3-1.2-24.68-4-28.17z" fill="#fff"/><path d="M348.78 254.44a19.19 19.19 0 01-2.59 5.49 19.92 19.92 0 01-4 4.45 20.54 20.54 0 01-4.93 3.08l-1.34.52c-.46.15-.91.29-1.37.42a16.69 16.69 0 01-2.94.49l-1.5-4.63c.17-.21.5-.47.75-.72l.81-.75c.54-.51 1.06-1 1.55-1.53a29.38 29.38 0 002.67-3.13c.42-.51.74-1.09 1.11-1.61s.66-1.09.92-1.66c.62-1.1 1-2.28 1.54-3.42z" fill="#ff8b7b"/><path d="M333.84 256.74l-2.61 3.59s6.24 2 6.24 7.22h3.09s.52-8.39-6.72-10.81z" fill="#fff"/><path d="M337.51 201.41c2.49 0 5.52 1.57 7.42 5.88s7.68 25.29 8.56 34.05 3.51 26.21-5.49 26.21h-8.54c0-7.29-7.21-10-7.21-10a82.92 82.92 0 006.56-6.15c.25-4.05-2.81-42.17-1.3-49.99z" fill="#263238"/><path d="M333.48 263.82l-7-6.28-2.1 10.95s6.07 3.3 8.78 1.22zM318.25 260.22l-1.88 8.27h8l2.1-10.94-8.22 2.67zM287.27 260.33l6.86-1.78 1.9 9.94s-6.06 3.3-8.78 1.22z" fill="#ff8b7b"/><path d="M288.17 256.74l1.66 2.39s-4.84 3.19-4.84 8.42h-3.54s-.52-8.39 6.72-10.81z" fill="#fff"/><path d="M292.3 202.7c-2.49 0-5.45 1.83-7.35 6.14s-10 23.74-10.89 32.5-3.49 26.21 5.51 26.21h3c0-7.29 7.27-10.81 7.27-10.81s-.26-2.33-1-6c-.29-4.04 4.95-40.23 3.46-48.04z" fill="#263238"/><path fill="#ff8b7b" d="M302.19 261.53l1.85 6.96h-8.01l-1.9-9.94 8.06 2.98z"/><path d="M324.42 162.34c-4.26.5-4.7 4.88-.5 14.25 4.85-2.26 9.12-9.32 7.75-12.34s-3.53-2.34-7.25-1.91z" fill="#263238"/><path d="M329.32 162.39s2.35-.21 2.66-2.27c.36 1.45.3 3.33-2.66 2.27z" fill="#263238"/><path d="M329.66 165.6c-.64 2.27-10.4-2.84-13.76-4.34s-15.33.33-12.71-7.34c2.34-6.81 10.82-3.12 10.82-3.12-2.17-.19-2.6 1.42.17 1.53s7.43.1 9.62 3 8.2 1.87 5.86 10.27z" fill="#263238"/><path d="M328.74 178.25a8.27 8.27 0 01-4.89 4c-2.78.81-4.2-1.67-3.46-4.31.67-2.38 2.93-5.67 5.73-5.32s3.88 3.26 2.62 5.63z" fill="#ff8b7b"/><rect x="268.52" y="309.15" width="72.67" height="7.34" rx="2.93" transform="rotate(-180 304.855 312.82)" fill="#0040ce"/><path fill="#0040ce" d="M271.5 398.31h-2.98l3.43-81.82h4.13l-4.58 81.82z"/><path fill="#fff" opacity=".6" d="M271.5 398.31h-2.98l3.43-81.82h4.13l-4.58 81.82z"/><path fill="#0040ce" d="M298.94 398.31h2.98l-3.43-81.82h-4.12l4.57 81.82z"/><path fill="#fff" opacity=".6" d="M298.94 398.31h2.98l-3.43-81.82h-4.12l4.57 81.82z"/><path fill="#0040ce" d="M310.77 398.31h-2.98l3.43-81.82h4.12l-4.57 81.82z"/><path fill="#fff" opacity=".6" d="M310.77 398.31h-2.98l3.43-81.82h4.12l-4.57 81.82z"/><path fill="#0040ce" d="M338.21 398.31h2.98l-3.43-81.82h-4.13l4.58 81.82z"/><path fill="#fff" opacity=".6" d="M338.21 398.31h2.98l-3.43-81.82h-4.13l4.58 81.82z"/><g opacity=".3" fill="#0040ce"><path d="M271.95 316.49h4.13l-.2 3.48h-4.08l.15-3.48zM298.64 319.97h-4.08l-.19-3.48h4.12l.15 3.48zM315.34 316.49l-.19 3.48h-4.08l.15-3.48h4.12zM337.91 319.97h-4.09l-.19-3.48h4.13l.15 3.48z"/></g><path fill="#ff8b7b" d="M257.24 404.55l-7.98-1.06-.3-18.79 7.97 1.06.31 18.79z"/><path d="M248.54 400.1l9 .12a.58.58 0 01.59.56l.34 7.15a1.4 1.4 0 01-1.42 1.4c-3.14-.09-4.45-.28-8.41-.62a115.11 115.11 0 01-11.54-1.43c-3.23-.69-2.51-3.95-1.05-3.94 3.46 0 8.79-1 11.08-2.76a2.28 2.28 0 011.41-.48z" fill="#263238"/><path opacity=".2" d="M256.93 385.77l-7.97-1.07.15 9.05 7.97.79-.15-8.77z"/><path d="M296.78 286.76s-57.62 4.71-55.16 27.62c3.53 32.92 4.67 74.16 4.67 74.16L261 389s5.27-40.33 2.12-66c15.62-6.42 57.87-8.3 61.26-22.24 2.77-11.41 0-17.21 0-17.21z" fill="#263238"/><path d="M293.18 291s-15.9 18.47-20.71 29.25a65.48 65.48 0 00-9.35 2.82 66.61 66.61 0 01.46 7.52c-11.25-13.25-4.99-35.26 29.6-39.59z" opacity=".3"/><path fill="#0040ce" d="M262.52 392.68l-17.1-1.22-1.03-6.45 18.96 1.12-.83 6.55zM244.17 401a1 1 0 01-.22-1 .69.69 0 01.44-.52c1-.37 3.24 1.21 3.5 1.39a.2.2 0 01.07.19.19.19 0 01-.14.15 10.55 10.55 0 01-2.15.26 2.19 2.19 0 01-1.5-.47zm.35-1.19a.34.34 0 00-.21.26.66.66 0 00.13.67c.37.38 1.42.44 2.87.17-.93-.59-2.26-1.28-2.79-1.08z"/><path d="M247.68 401.18c-.79-.48-2-2.18-1.77-3.05a.71.71 0 01.68-.56.94.94 0 01.79.27c.8.8.59 3.1.58 3.2a.16.16 0 01-.1.15h-.09zm-1.05-3.24c-.27 0-.33.16-.36.27-.13.58.65 1.86 1.34 2.46a4.1 4.1 0 00-.49-2.56.54.54 0 00-.4-.17z" fill="#0040ce"/><path fill="#ff8b7b" d="M290.93 402.39l-8.04-.09-3.46-18.65 8.03.1 3.47 18.64z"/><path d="M282.59 401.23l8.92-1.32a.57.57 0 01.67.46l1.48 7a1.42 1.42 0 01-1.18 1.61c-3.12.41-4.63.45-8.56 1-2.41.35-7.14 1.27-10.51 1.23s-3.24-3.37-1.81-3.65c3.39-.68 7.71-3.58 9.69-5.67a2.25 2.25 0 011.3-.66z" fill="#263238"/><path d="M278.42 402.83a1 1 0 01-.38-1 .71.71 0 01.35-.59c.92-.52 3.4.68 3.68.82a.21.21 0 01.1.18.17.17 0 01-.12.16 9.87 9.87 0 01-2.08.6 2.15 2.15 0 01-1.55-.17zm.16-1.23a.34.34 0 00-.17.29.69.69 0 00.23.64c.43.31 1.48.2 2.86-.29-1.01-.45-2.43-.92-2.92-.64z" fill="#0040ce"/><path d="M281.91 402.43c-.86-.35-2.29-1.84-2.24-2.73a.72.72 0 01.59-.66 1 1 0 01.83.14c.91.66 1.07 3 1.08 3.07a.21.21 0 01-.08.16.11.11 0 01-.08 0 .12.12 0 01-.1.02zm-1.55-3c-.26.07-.31.21-.31.32 0 .59.94 1.73 1.71 2.21-.09-.75-.34-2.05-.89-2.44a.54.54 0 00-.42-.11z" fill="#0040ce"/><path opacity=".2" d="M287.46 383.75l-8.03-.09 1.98 10.66 7.97-.3-1.92-10.27z"/><path d="M316.26 284.51s-56.68 12-52.6 29.05c5.89 24.53 13.57 78 13.57 78l14.67-1.12s.6-49.07-5.54-74.18c14.83-1.71 51.25-4.84 53.53-14.16 2-8.23-.43-20.25-.43-20.25s-46.21 4.88-50.7 7 27.5-4.34 27.5-4.34z" fill="#263238"/><path fill="#0040ce" d="M293.62 391.13l-17.63 1.16-1.51-7.55 19.37-.9-.23 7.29z"/></g><g><path d="M133.83 277.15h267.7v131.67a4.36 4.36 0 01-4.36 4.36h-259a4.36 4.36 0 01-4.36-4.36V277.15z" fill="#0040ce"/><path d="M133.83 277.15h267.7v131.67a4.36 4.36 0 01-4.36 4.36h-259a4.36 4.36 0 01-4.36-4.36V277.15z" opacity=".2"/><path d="M100 277.15h267.7v131.67a4.36 4.36 0 01-4.36 4.36h-259a4.36 4.36 0 01-4.36-4.36V277.15zM403.75 267.15H126.92v10h276.83a5 5 0 005-5 5 5 0 00-5-5z" fill="#0040ce"/><path d="M403.75 267.15H126.92v10h276.83a5 5 0 005-5 5 5 0 00-5-5z" fill="#fff" opacity=".3"/><path d="M368.08 267.15H96.25a5 5 0 00-5 5 5 5 0 005 5h271.83a5 5 0 005-5 5 5 0 00-5-5z" fill="#0040ce"/><path d="M368.08 267.15H96.25a5 5 0 00-5 5 5 5 0 005 5h271.83a5 5 0 005-5 5 5 0 00-5-5z" fill="#fff" opacity=".6"/><path fill="#fff" opacity=".7" d="M161.83 267.15H143.6l-5.44 10h18.23l5.44-10zM179.22 267.15h-9.12l-5.44 10h9.11l5.45-10zM270.82 267.15h-40.39l-5.44 10h40.39l5.44-10zM288.21 267.15h-9.11l-5.45 10h9.12l5.44-10zM345.51 267.15h-3.47l-5.44 10h3.46l5.45-10z"/><g opacity=".3"><path d="M160 327h10.49l10.68 20.12 3-20.12h10.59l-5.45 36.37h-10.6l-10.63-20-3 20h-10.56zM202.19 327h30.12l-1.17 7.76h-18.85l-.87 5.78h17.49l-1.11 7.42h-17.49l-1.07 7.17h19.4l-1.24 8.24h-30.66zM235.16 327h10.67l.8 20.36L255.3 327h10.64l2.59 20.33 6.89-20.33H286l-13.46 36.37h-11l-2.94-22.9-9.79 22.9h-11zM284.1 351.32l10.8-.67a7.31 7.31 0 00.81 4 5.09 5.09 0 004.64 2.2 6.14 6.14 0 003.87-1.13 4.05 4.05 0 001.7-2.61 2.9 2.9 0 00-.86-2.53q-1.08-1.12-5.44-2.11-7.14-1.67-9.88-4.42a7.72 7.72 0 01-2.13-7 11 11 0 012.42-5.29 13.25 13.25 0 015.47-3.92 24.53 24.53 0 019.16-1.43q7 0 10.24 2.59t3.1 8.2l-10.68.62a4.87 4.87 0 00-1.24-3.57 5 5 0 00-3.57-1.12 5.1 5.1 0 00-3.08.83 3.08 3.08 0 00-1.29 2 1.74 1.74 0 00.58 1.56c.46.48 1.65.92 3.57 1.34q7.14 1.59 10.08 3.21a8.9 8.9 0 014 4 9.36 9.36 0 01.65 5.38 13.28 13.28 0 01-2.9 6.45 15 15 0 01-6.08 4.48 23.53 23.53 0 01-9 1.53q-9.27 0-12.31-3.57a12.26 12.26 0 01-2.63-9.02z"/></g><path d="M157.27 327h10.5l10.67 20.12 3-20.12h10.59l-5.45 36.37H176l-10.63-20-3 20h-10.55zM199.49 327h30.12l-1.16 7.76h-18.86l-.86 5.78h17.48l-1.11 7.42h-17.49l-1.07 7.17h19.4l-1.23 8.24H194zM232.46 327h10.68l.79 20.36L252.6 327h10.64l2.59 20.33 6.89-20.33h10.62l-13.46 36.37h-11l-3-22.9-9.78 22.9h-11zM281.41 351.32l10.79-.67a7.21 7.21 0 00.82 4 5.07 5.07 0 004.63 2.2 6.17 6.17 0 003.88-1.13 4 4 0 001.69-2.61 2.87 2.87 0 00-.86-2.53q-1.08-1.12-5.44-2.11-7.14-1.67-9.88-4.42a7.75 7.75 0 01-2.13-7 11 11 0 012.42-5.29 13.22 13.22 0 015.48-3.92 24.51 24.51 0 019.15-1.43q7 0 10.24 2.59c2.19 1.73 3.22 4.48 3.12 8.25l-10.68.62a4.87 4.87 0 00-1.24-3.57 5 5 0 00-3.57-1.12 5.06 5.06 0 00-3.07.83 3.05 3.05 0 00-1.3 2 1.73 1.73 0 00.59 1.56c.45.48 1.64.92 3.57 1.34q7.13 1.59 10.07 3.21a8.9 8.9 0 014 4 9.36 9.36 0 01.65 5.38 13.19 13.19 0 01-2.9 6.45 15 15 0 01-6.08 4.48 23.53 23.53 0 01-9 1.53q-9.27 0-12.31-3.57a12.26 12.26 0 01-2.64-9.07z" fill="#fff"/><rect x="210.42" y="253.69" width="9.31" height="13.46" rx=".5" fill="#0040ce"/><path d="M209.64 265.55c-1.92 0-3.42-2.25-3.42-5.13s1.5-5.13 3.42-5.13 3.42 2.26 3.42 5.13-1.51 5.13-3.42 5.13zm0-8.76c-.91 0-1.92 1.49-1.92 3.63s1 3.63 1.92 3.63 1.92-1.49 1.92-3.63-1.02-3.63-1.92-3.63z" fill="#0040ce"/></g><g><path d="M132.62 185.67c2.47 0 4.48-4.07 4.48-9.09s-2-9.09-4.48-9.09h-6.3v18.18z" fill="#0040ce"/><path d="M136.35 171.56h-10v3.59H137a15.25 15.25 0 00-.65-3.59z" fill="#fff" opacity=".8"/><path d="M130.8 176.58c0 5-2 9.09-4.48 9.09s-4.48-4.07-4.48-9.09 2-9.09 4.48-9.09 4.48 4.07 4.48 9.09z" fill="#0040ce"/><path d="M130.8 176.58c0 5-2 9.09-4.48 9.09s-4.48-4.07-4.48-9.09 2-9.09 4.48-9.09 4.48 4.07 4.48 9.09z" opacity=".2"/><rect x="57.98" y="163.95" width="27.27" height="25.26" rx="2.73" fill="#0040ce"/><rect x="57.98" y="163.95" width="27.27" height="25.26" rx="2.73" opacity=".2"/><rect x="76.93" y="163.95" width="45.26" height="25.26" rx="2.73" fill="#0040ce"/><path fill="#0040ce" d="M75.42 157.35l-6.11 6.6h17.65l6.1-6.6H75.42z"/><path opacity=".2" d="M75.42 157.35l-6.11 6.6h17.65l6.1-6.6H75.42z"/><path fill="#0040ce" d="M110.86 163.95H81.57l6.1-6.6h17.08l6.11 6.6zM68.08 157.35l-6.11-15.97h23.75l6.11 15.97H68.08z"/><path opacity=".2" d="M68.08 157.35l-6.11-15.97h23.75l6.11 15.97H68.08z"/><path fill="#0040ce" d="M115.72 141.38H80.34l6.1 15.97h23.18l6.1-15.97z"/><path fill="#0040ce" opacity=".5" d="M70 154.84l-4.18-10.95h12.59l4.18 10.95H70z"/><path opacity=".2" d="M98.65 177.25h1.82v8.42h-1.82zM104.75 177.25h1.82v8.42h-1.82zM110.86 177.25h1.82v8.42h-1.82zM116.96 177.25h1.82v8.42h-1.82zM95.6 177.25h1.82v8.42H95.6zM101.7 177.25h1.82v8.42h-1.82zM107.8 177.25h1.82v8.42h-1.82zM113.91 177.25h1.82v8.42h-1.82z"/><path d="M122.19 180h2.3a3.44 3.44 0 003.44-3.45 3.44 3.44 0 00-3.44-3.44h-2.3z" fill="#0040ce"/><path d="M122.19 180h2.3a3.44 3.44 0 003.44-3.45 3.44 3.44 0 00-3.44-3.44h-2.3z" fill="#fff" opacity=".7"/><rect x="60.63" y="167.49" width="13.64" height="6.51" rx="1.64" fill="#0040ce" opacity=".8"/><path fill="#0040ce" d="M71.61 189.22h35.89v2.11H71.61z"/><path fill="#fff" opacity=".7" d="M71.61 189.22h35.89v2.11H71.61z"/><path d="M105.15 195.53H74a4.21 4.21 0 01-4.21-4.21h39.61a4.2 4.2 0 01-4.25 4.21z" fill="#0040ce"/><path fill="#0040ce" d="M78.22 195.53h22.68v6.79H78.22zM99.33 242.18H79.78A4.19 4.19 0 0175.6 238a4.18 4.18 0 014.18-4.18h19.55a4.18 4.18 0 014.19 4.18 4.19 4.19 0 01-4.19 4.18zM83.52 202.33H95.6v31.48H83.52z"/><path fill="#fff" opacity=".7" d="M83.52 202.33H95.6v31.48H83.52z"/><path d="M86.12 242.18H93v172.15a3.42 3.42 0 01-3.42 3.42 3.42 3.42 0 01-3.42-3.42V242.18h-.04z" fill="#0040ce"/><path d="M86.12 242.18H93v172.15a3.42 3.42 0 01-3.42 3.42 3.42 3.42 0 01-3.42-3.42V242.18h-.04z" opacity=".2"/><path d="M71.94 417.75a3.42 3.42 0 01-3.41-3.69l13.74-171.88h6.87L75.35 414.61a3.42 3.42 0 01-3.41 3.14z" fill="#0040ce"/><path d="M71.94 417.75a3.42 3.42 0 01-3.41-3.69l13.74-171.88h6.87L75.35 414.61a3.42 3.42 0 01-3.41 3.14z" opacity=".2"/><path d="M107.17 417.75a3.42 3.42 0 003.41-3.69L96.84 242.18H90l13.78 172.43a3.43 3.43 0 003.39 3.14z" fill="#0040ce"/><path d="M107.17 417.75a3.42 3.42 0 003.41-3.69L96.84 242.18H90l13.78 172.43a3.43 3.43 0 003.39 3.14z" opacity=".2"/></g><g><path d="M383.12 114.28H382a8.27 8.27 0 01-7.73-6.47l-3.53-18.07a5.18 5.18 0 015.21-6.46h1.16a8.27 8.27 0 017.73 6.46l3.53 18.07a5.19 5.19 0 01-5.25 6.47z" fill="#0040ce"/><path d="M383.12 114.28H382a8.27 8.27 0 01-7.73-6.47l-3.53-18.07a5.18 5.18 0 015.21-6.46h1.16a8.27 8.27 0 017.73 6.46l3.53 18.07a5.19 5.19 0 01-5.25 6.47z" fill="#fff" opacity=".5"/><path fill="#0040ce" d="M448.32 110.11H382.1l-4.42-22.67h66.22l4.42 22.67z"/><path opacity=".2" d="M448.32 110.11H382.1l-4.42-22.67h66.22l4.42 22.67z"/><path fill="#0040ce" d="M436.27 79.11h-66.22l7.63 8.33h66.22l-7.63-8.33zM443.95 118.44h-66.22l4.37-8.33h66.22l-4.37 8.33z"/><path opacity=".4" d="M443.95 118.44h-66.22l4.37-8.33h66.22l-4.37 8.33z"/><path fill="#0040ce" d="M370.05 79.11h-2.1l7.63 8.33 4.42 22.67-4.37 8.33h2.1l4.37-8.33-4.42-22.67-7.63-8.33z"/><path opacity=".5" d="M370.05 79.11h-2.1l7.63 8.33 4.42 22.67-4.37 8.33h2.1l4.37-8.33-4.42-22.67-7.63-8.33z"/><circle cx="413" cy="98.78" r="5.39" opacity=".4"/><path d="M415.17 403.34a2.18 2.18 0 01-2.17-2.17V101a2.18 2.18 0 012.17-2.17 2.18 2.18 0 012.18 2.17v300.17a2.18 2.18 0 01-2.18 2.17z" fill="#0040ce"/><path d="M415.17 403.34a2.18 2.18 0 01-2.17-2.17V101a2.18 2.18 0 012.17-2.17 2.18 2.18 0 012.18 2.17v300.17a2.18 2.18 0 01-2.18 2.17z" opacity=".5"/><path fill="#0040ce" d="M414.03 403.83h2.29v13.92h-2.29z"/><path opacity=".2" d="M414.03 403.83h2.29v13.92h-2.29z"/><path fill="#0040ce" d="M406.45 417.75h-2.85l8.46-13.92h2.86l-8.47 13.92z"/><path opacity=".2" d="M406.45 417.75h-2.85l8.46-13.92h2.86l-8.47 13.92z"/><path fill="#0040ce" d="M423.89 417.75h2.86l-8.47-13.92h-2.85l8.46 13.92z"/><path opacity=".2" d="M423.89 417.75h2.86l-8.47-13.92h-2.85l8.46 13.92z"/><path d="M418.17 404.91h-6a2.17 2.17 0 01-2.17-2.16 2.18 2.18 0 012.17-2.17h6a2.17 2.17 0 012.16 2.17 2.16 2.16 0 01-2.16 2.16z" fill="#0040ce"/></g></svg>